<?xml version="1.0" encoding="utf-8"?>
<!-- Generator: Adobe Illustrator 15.0.0, SVG Export Plug-In . SVG Version: 6.00 Build 0)  -->
<!DOCTYPE svg PUBLIC "-//W3C//DTD SVG 1.1//EN" "http://www.w3.org/Graphics/SVG/1.1/DTD/svg11.dtd">
<svg version="1.1" id="Layer_1" xmlns="http://www.w3.org/2000/svg" xmlns:xlink="http://www.w3.org/1999/xlink" x="0px" y="0px"
	 width="980.875px" height="416.799px" viewBox="0 0 980.875 416.799" enable-background="new 0 0 980.875 416.799"
	 xml:space="preserve">
<polygon fill="#53C4C5" points="980.814,0 980.814,236.91 980.525,236.91 735.389,321.563 490.269,406.199 245.132,321.563 
	0.014,236.91 -0.277,236.91 -0.277,0 "/>
<polygon fill="none" stroke="#FFFFFF" stroke-miterlimit="10" points="983.269,-35.767 983.269,201.143 982.978,201.143 
	736.614,285.795 490.269,370.432 243.906,285.795 -2.439,201.143 -2.731,201.143 -2.731,-35.767 "/>
<g>
	<defs>
		<rect id="SVGID_1_" x="-0.216" y="995.104" width="981.091" height="516.783"/>
	</defs>
	<clipPath id="SVGID_2_">
		<use xlink:href="#SVGID_1_"  overflow="visible"/>
	</clipPath>
	<polygon clip-path="url(#SVGID_2_)" fill="#53C4C5" points="992.365,1578.025 992.365,1577.6 11.273,1577.6 -78.115,1125.258 
		430.537,1300.833 488.772,1320.931 573.119,1291.822 1081.753,1116.25 	"/>
</g>
<rect x="-0.216" y="1377.957" fill="#53C4C5" width="981.091" height="635.324"/>
<line fill="none" stroke="#FFFFFF" stroke-miterlimit="10" x1="-15.546" y1="1167.887" x2="490.33" y2="1349.001"/>
<line fill="none" stroke="#FFFFFF" stroke-miterlimit="10" x1="490.33" y1="1349.001" x2="980.875" y2="1175.266"/>
</svg>
